<svg width="48" height="48" viewBox="0 0 48 48" fill="none" xmlns="http://www.w3.org/2000/svg">
<g clip-path="url(#clip0_970_5347)">
<path d="M0 15.36C0 9.98352 0 7.29522 1.04634 5.24169C1.96672 3.43534 3.43534 1.96672 5.24169 1.04634C7.29522 0 9.98352 0 15.36 0H32.64C38.0165 0 40.7048 0 42.7583 1.04634C44.5646 1.96672 46.0333 3.43534 46.9537 5.24169C48 7.29522 48 9.98352 48 15.36V32.64C48 38.0165 48 40.7048 46.9537 42.7583C46.0333 44.5646 44.5646 46.0333 42.7583 46.9537C40.7048 48 38.0165 48 32.64 48H15.36C9.98352 48 7.29522 48 5.24169 46.9537C3.43534 46.0333 1.96672 44.5646 1.04634 42.7583C0 40.7048 0 38.0165 0 32.64V15.36Z" fill="#333333"/>
<path fill-rule="evenodd" clip-rule="evenodd" d="M11.3999 18.0008C11.3999 17.338 11.9371 16.8008 12.5999 16.8008H35.3999C36.0627 16.8008 36.5999 17.338 36.5999 18.0008V32.4008C36.5999 33.0635 36.0627 33.6008 35.3999 33.6008H12.5999C11.9371 33.6008 11.3999 33.0635 11.3999 32.4008V18.0008ZM23.9999 31.8008C20.3548 31.8008 17.3999 28.8458 17.3999 25.2008C17.3999 21.5557 20.3548 18.6008 23.9999 18.6008C27.645 18.6008 30.5999 21.5557 30.5999 25.2008C30.5999 28.8458 27.645 31.8008 23.9999 31.8008ZM14.3999 21.6008H15.5999C16.2627 21.6008 16.7999 21.0635 16.7999 20.4008C16.7999 19.738 16.2627 19.2008 15.5999 19.2008H14.3999C13.7371 19.2008 13.1999 19.738 13.1999 20.4008C13.1999 21.0635 13.7371 21.6008 14.3999 21.6008Z" fill="white"/>
<path opacity="0.3" fill-rule="evenodd" clip-rule="evenodd" d="M24.0002 30.0004C26.6512 30.0004 28.8002 27.8514 28.8002 25.2004C28.8002 22.5494 26.6512 20.4004 24.0002 20.4004C21.3492 20.4004 19.2002 22.5494 19.2002 25.2004C19.2002 27.8514 21.3492 30.0004 24.0002 30.0004Z" fill="white"/>
<path fill-rule="evenodd" clip-rule="evenodd" d="M27.5999 25.1996C27.5999 27.1878 25.9881 28.7996 23.9999 28.7996C22.0117 28.7996 20.3999 27.1878 20.3999 25.1996C20.3999 23.2114 22.0117 21.5996 23.9999 21.5996C25.9881 21.5996 27.5999 23.2114 27.5999 25.1996ZM25.7999 25.1996C25.7999 26.1938 24.994 26.9996 23.9999 26.9996C23.0058 26.9996 22.1999 26.1938 22.1999 25.1996C22.1999 24.2055 23.0058 23.3996 23.9999 23.3996C24.994 23.3996 25.7999 24.2055 25.7999 25.1996Z" fill="white"/>
</g>
<defs>
<clipPath id="clip0_970_5347">
<rect width="48" height="48" fill="white"/>
</clipPath>
</defs>
</svg>
