<svg width="48" height="48" viewBox="0 0 48 48" fill="none" xmlns="http://www.w3.org/2000/svg">
<g clip-path="url(#clip0_208_7003)">
<g clip-path="url(#clip1_208_7003)">
<path d="M0 15.36C0 9.98352 0 7.29522 1.04634 5.24169C1.96672 3.43534 3.43534 1.96672 5.24169 1.04634C7.29522 0 9.98352 0 15.36 0H32.64C38.0165 0 40.7048 0 42.7583 1.04634C44.5646 1.96672 46.0333 3.43534 46.9537 5.24169C48 7.29522 48 9.98352 48 15.36V32.64C48 38.0165 48 40.7048 46.9537 42.7583C46.0333 44.5646 44.5646 46.0333 42.7583 46.9537C40.7048 48 38.0165 48 32.64 48H15.36C9.98352 48 7.29522 48 5.24169 46.9537C3.43534 46.0333 1.96672 44.5646 1.04634 42.7583C0 40.7048 0 38.0165 0 32.64V15.36Z" fill="#333333"/>
<path opacity="0.3" d="M18.6004 14.4004H15.0004C14.669 14.4004 14.4004 14.669 14.4004 15.0004V18.6004C14.4004 18.9318 14.669 19.2004 15.0004 19.2004H18.6004C18.9318 19.2004 19.2004 18.9318 19.2004 18.6004V15.0004C19.2004 14.669 18.9318 14.4004 18.6004 14.4004Z" fill="white"/>
<path fill-rule="evenodd" clip-rule="evenodd" d="M22.2004 14.4004C21.869 14.4004 21.6004 14.669 21.6004 15.0004V18.6004C21.6004 18.9318 21.869 19.2004 22.2004 19.2004H25.8004C26.1318 19.2004 26.4004 18.9318 26.4004 18.6004V15.0004C26.4004 14.669 26.1318 14.4004 25.8004 14.4004H22.2004ZM15.0004 21.6004C14.669 21.6004 14.4004 21.869 14.4004 22.2004V25.8004C14.4004 26.1318 14.669 26.4004 15.0004 26.4004H18.6004C18.9318 26.4004 19.2004 26.1318 19.2004 25.8004V22.2004C19.2004 21.869 18.9318 21.6004 18.6004 21.6004H15.0004ZM21.6004 22.2004C21.6004 21.869 21.869 21.6004 22.2004 21.6004H25.8004C26.1318 21.6004 26.4004 21.869 26.4004 22.2004V25.8004C26.4004 26.1318 26.1318 26.4004 25.8004 26.4004H22.2004C21.869 26.4004 21.6004 26.1318 21.6004 25.8004V22.2004ZM29.4004 14.4004C29.069 14.4004 28.8004 14.669 28.8004 15.0004V18.6004C28.8004 18.9318 29.069 19.2004 29.4004 19.2004H33.0004C33.3318 19.2004 33.6004 18.9318 33.6004 18.6004V15.0004C33.6004 14.669 33.3318 14.4004 33.0004 14.4004H29.4004ZM28.8004 22.2004C28.8004 21.869 29.069 21.6004 29.4004 21.6004H33.0004C33.3318 21.6004 33.6004 21.869 33.6004 22.2004V25.8004C33.6004 26.1318 33.3318 26.4004 33.0004 26.4004H29.4004C29.069 26.4004 28.8004 26.1318 28.8004 25.8004V22.2004ZM15.0004 28.8004C14.669 28.8004 14.4004 29.069 14.4004 29.4004V33.0004C14.4004 33.3318 14.669 33.6004 15.0004 33.6004H18.6004C18.9318 33.6004 19.2004 33.3318 19.2004 33.0004V29.4004C19.2004 29.069 18.9318 28.8004 18.6004 28.8004H15.0004ZM21.6004 29.4004C21.6004 29.069 21.869 28.8004 22.2004 28.8004H25.8004C26.1318 28.8004 26.4004 29.069 26.4004 29.4004V33.0004C26.4004 33.3318 26.1318 33.6004 25.8004 33.6004H22.2004C21.869 33.6004 21.6004 33.3318 21.6004 33.0004V29.4004ZM29.4004 28.8004C29.069 28.8004 28.8004 29.069 28.8004 29.4004V33.0004C28.8004 33.3318 29.069 33.6004 29.4004 33.6004H33.0004C33.3318 33.6004 33.6004 33.3318 33.6004 33.0004V29.4004C33.6004 29.069 33.3318 28.8004 33.0004 28.8004H29.4004Z" fill="white"/>
</g>
</g>
<defs>
<clipPath id="clip0_208_7003">
<rect width="48" height="48" fill="white"/>
</clipPath>
<clipPath id="clip1_208_7003">
<rect width="48" height="48" fill="white"/>
</clipPath>
</defs>
</svg>
