<svg width="48" height="48" viewBox="0 0 48 48" fill="none" xmlns="http://www.w3.org/2000/svg">
<g clip-path="url(#clip0_446_8597)">
<path d="M0 9.6C0 4.29806 4.29806 0 9.6 0H38.4C43.702 0 48 4.29806 48 9.6V38.4C48 43.702 43.702 48 38.4 48H9.6C4.29806 48 0 43.702 0 38.4V9.6Z" fill="#333333"/>
<path fill-rule="evenodd" clip-rule="evenodd" d="M23.1835 34.0327C21.1864 32.3246 14.7695 26.4815 14.7695 21.9219C14.7695 16.5219 18.3695 12.9219 23.7695 12.9219C29.1695 12.9219 32.7695 17.4219 32.7695 21.9219C32.7695 25.7399 26.2906 32.1496 24.3269 34.0046C24.0067 34.3071 23.5183 34.3191 23.1835 34.0327ZM26.7695 20.7219C26.7695 22.3787 25.4264 23.7219 23.7695 23.7219C22.1127 23.7219 20.7695 22.3787 20.7695 20.7219C20.7695 19.065 22.1127 17.7219 23.7695 17.7219C25.4264 17.7219 26.7695 19.065 26.7695 20.7219Z" fill="#FAFAFA"/>
</g>
<defs>
<clipPath id="clip0_446_8597">
<rect width="48" height="48" fill="white"/>
</clipPath>
</defs>
</svg>
