<svg width="288" height="44" viewBox="0 0 288 44" fill="none" xmlns="http://www.w3.org/2000/svg">
<path d="M112.42 0.205078H102.63V9.99508H112.42V0.205078Z" fill="#FEA621"/>
<path d="M80.9998 32.6051C79.9516 32.4566 78.9915 31.9369 78.2942 31.1404C77.5968 30.344 77.2085 29.3237 77.1998 28.2651C77.1998 28.0451 77.0598 14.7851 77.0598 14.6151C77.0545 14.0338 77.1639 13.4572 77.3818 12.9183C77.5997 12.3793 77.9218 11.8887 78.3295 11.4744C78.7373 11.0601 79.2228 10.7303 79.7582 10.5039C80.2937 10.2775 80.8685 10.159 81.4498 10.1551L98.9998 9.99508V0.205078H79.4598C76.3881 0.204641 73.4285 1.35917 71.1684 3.43949C68.9084 5.51981 67.5132 8.37384 67.2598 11.4351V30.2051C67.2597 33.4444 68.5438 36.5517 70.8306 38.846C73.1174 41.1403 76.2204 42.4345 79.4598 42.4451L112.46 42.3951V32.6051H80.9998Z" fill="#F5F5F5"/>
<path d="M132.29 32.6562H122.5V42.4463H132.29V32.6562Z" fill="#66B821"/>
<path d="M170.72 0.355469H160.93V11.8255C160.777 12.87 160.256 13.8253 159.46 14.5186C158.663 15.212 157.646 15.5975 156.59 15.6055H136.68C136.099 15.6015 135.524 15.483 134.988 15.2566C134.453 15.0302 133.968 14.7004 133.56 14.2862C133.152 13.8719 132.83 13.3812 132.612 12.8423C132.394 12.3034 132.285 11.7268 132.29 11.1455C132.29 10.8755 132.29 0.645469 132.29 0.645469H122.5L122.55 15.1355C122.84 20.6555 128.62 25.5455 134.74 25.5455H157.48C158.645 25.6651 159.821 25.5321 160.93 25.1555V28.7755C160.93 31.3955 158.63 32.5555 156.59 32.5555L136 32.6555V42.4455H158.6C164.75 42.4455 170.6 37.1055 170.6 31.8755L170.72 0.355469Z" fill="#F5F5F5"/>
<path d="M57.4404 32.6562H47.6504V42.4463H57.4404V32.6562Z" fill="#C2000B"/>
<path d="M51.11 0.0658668C48.1526 -0.0250655 45.2784 1.05275 43.11 3.06587C42.4 3.68587 28.63 17.7059 28.63 17.7059L13.63 2.70587C11.73 0.845867 8.87 0.165867 6.12 0.165867L0 0.125867V42.4459H9.79V12.6659L28.65 31.5259L47.65 12.5259V28.6259H57.44V0.125867L51.11 0.0658668Z" fill="#F5F5F5"/>
<path d="M188.78 11.3657V3.8257L186.18 9.3157H184.91L182.27 3.8257V11.3557H180.56V0.0957031H182.25L185.54 7.0957L188.78 0.0957031H190.49V11.3657H188.78Z" fill="#F5F5F5"/>
<path d="M202.09 5.88604C202.09 7.73604 202.09 9.14604 201 10.256C200.205 11.0294 199.139 11.4621 198.03 11.4621C196.921 11.4621 195.855 11.0294 195.06 10.256C194 9.16604 194 7.62604 194 5.99604V5.20604C194 3.35604 194.14 2.14604 195.09 1.20604C195.885 0.432677 196.951 0 198.06 0C199.169 0 200.235 0.432677 201.03 1.20604C201.453 1.72478 201.767 2.32309 201.954 2.96551C202.141 3.60794 202.198 4.28142 202.12 4.94604L202.09 5.88604ZM199.7 2.22604C199.483 2.00025 199.222 1.82157 198.933 1.70114C198.644 1.5807 198.333 1.5211 198.02 1.52604C197.707 1.52287 197.397 1.58328 197.108 1.70361C196.819 1.82394 196.558 2.00167 196.34 2.22604C195.71 2.88604 195.69 3.99604 195.69 5.43604V6.43604C195.547 7.42422 195.779 8.43011 196.34 9.25604C196.558 9.4804 196.819 9.65813 197.108 9.77846C197.397 9.89879 197.707 9.9592 198.02 9.95604C198.334 9.96405 198.645 9.90584 198.935 9.78522C199.224 9.66461 199.485 9.48429 199.7 9.25604C200.37 8.55604 200.37 7.56604 200.37 5.64604C200.37 3.90604 200.34 2.89604 199.7 2.22604Z" fill="#F5F5F5"/>
<path d="M213 0.0957031V9.8257H214.33V13.8957H212.65V11.3657H205.81V13.8957H204.15V9.8257H205.15C206.197 7.85858 206.674 5.63905 206.53 3.4157V0.0957031H213ZM208.16 4.1457C208.254 6.10083 207.873 8.04954 207.05 9.8257H211.29V1.6257H208.16V4.1457Z" fill="#F5F5F5"/>
<path d="M220.62 9.5257C220.468 10.042 220.157 10.4973 219.732 10.8275C219.307 11.1576 218.788 11.3459 218.25 11.3657H217.08V9.8257H217.89C218.178 9.84347 218.463 9.76452 218.701 9.60141C218.938 9.43831 219.114 9.20044 219.2 8.9257L219.6 8.0057L215.94 0.0957031H217.74L220.43 6.0957L222.85 0.0957031H224.66L220.62 9.5257Z" fill="#F5F5F5"/>
<path d="M233 11.3657V1.6257H229.76V5.1857C229.76 9.9157 228.62 11.3557 226.36 11.3557H225.65V9.8257H225.95C227.2 9.8257 228.1 9.0357 228.1 4.9457V0.0957031H234.72V11.3657H233Z" fill="#F5F5F5"/>
<path d="M242.91 11.3657H238.59V0.0957031H240.3V4.5257H242.91C243.376 4.48885 243.844 4.55077 244.284 4.70741C244.725 4.86406 245.127 5.11191 245.465 5.43474C245.803 5.75756 246.069 6.1481 246.246 6.5808C246.422 7.0135 246.505 7.47861 246.49 7.9457C246.504 8.41237 246.419 8.87676 246.242 9.30872C246.065 9.74068 245.799 10.1306 245.462 10.4531C245.124 10.7756 244.722 11.0235 244.283 11.1807C243.843 11.3379 243.375 11.401 242.91 11.3657ZM242.77 6.0657H240.3V9.8257H242.77C243.03 9.85684 243.293 9.83062 243.542 9.74888C243.79 9.66715 244.018 9.5319 244.209 9.35266C244.399 9.17342 244.549 8.95454 244.645 8.71145C244.742 8.46836 244.785 8.20698 244.77 7.9457C244.786 7.68362 244.745 7.4211 244.649 7.17678C244.553 6.93245 244.404 6.71229 244.213 6.53193C244.022 6.35156 243.794 6.21539 243.544 6.13309C243.295 6.05079 243.031 6.02437 242.77 6.0557V6.0657Z" fill="#F5F5F5"/>
<path d="M255.77 11.3657V6.4357H251.21V11.3557H249.5V0.0957031H251.21V4.9157H255.77V0.0957031H257.5V11.3657H255.77Z" fill="#F5F5F5"/>
<path d="M265.7 11.3657H261.38V0.0957031H263.09V4.5257H265.7C266.166 4.48885 266.634 4.55077 267.075 4.70741C267.515 4.86406 267.917 5.11191 268.255 5.43474C268.593 5.75756 268.859 6.1481 269.036 6.5808C269.212 7.0135 269.295 7.47861 269.28 7.9457C269.294 8.41237 269.209 8.87676 269.032 9.30872C268.855 9.74068 268.589 10.1306 268.252 10.4531C267.914 10.7756 267.512 11.0235 267.073 11.1807C266.633 11.3379 266.165 11.401 265.7 11.3657ZM265.56 6.0657H263.09V9.8257H265.56C265.82 9.85684 266.083 9.83062 266.332 9.74888C266.58 9.66715 266.808 9.5319 266.999 9.35266C267.189 9.17342 267.339 8.95454 267.435 8.71145C267.532 8.46836 267.575 8.20698 267.56 7.9457C267.576 7.68362 267.535 7.4211 267.439 7.17678C267.343 6.93245 267.194 6.71229 267.003 6.53193C266.812 6.35156 266.584 6.21539 266.334 6.13309C266.085 6.05079 265.821 6.02437 265.56 6.0557V6.0657ZM270.64 11.3657V0.0957031H272.35V11.3657H270.64Z" fill="#F5F5F5"/>
<path d="M276.25 11.3657V0.0957031H283.47V1.6257H278V4.9157H282.69V6.4357H278V9.8257H283.51V11.3657H276.25Z" fill="#F5F5F5"/>
<path d="M184.2 26.9958C183.645 27.0106 183.092 26.9118 182.577 26.7054C182.061 26.4991 181.592 26.1895 181.2 25.7958C180.09 24.6858 180.11 23.4358 180.11 21.2658C180.11 19.0958 180.11 17.8458 181.2 16.7358C181.592 16.342 182.061 16.0325 182.577 15.8262C183.092 15.6198 183.645 15.521 184.2 15.5358C185.183 15.5 186.142 15.8383 186.884 16.4823C187.627 17.1264 188.097 18.0283 188.2 19.0058H186.46C186.387 18.5859 186.2 18.1941 185.92 17.8731C185.639 17.5521 185.276 17.3142 184.87 17.1853C184.463 17.0564 184.029 17.0414 183.615 17.142C183.201 17.2426 182.822 17.4549 182.52 17.7558C181.97 18.3558 181.84 19.0058 181.84 21.2658C181.84 23.5258 181.97 24.1758 182.52 24.7758C182.822 25.0902 183.205 25.3142 183.627 25.4228C184.048 25.5313 184.492 25.52 184.908 25.3901C185.323 25.2602 185.694 25.0169 185.979 24.6875C186.264 24.3581 186.452 23.9558 186.52 23.5258H188.25C188.144 24.5113 187.666 25.4192 186.914 26.0641C186.161 26.709 185.19 27.0422 184.2 26.9958Z" fill="#F5F5F5"/>
<path d="M197.11 26.9067V18.7267L192.06 26.9067H190.5V15.6367H192.21V23.8067L197.21 15.6367H198.78V26.9067H197.11Z" fill="#F5F5F5"/>
<path d="M205.4 26.9958C204.844 27.0106 204.292 26.9118 203.776 26.7054C203.26 26.4991 202.792 26.1895 202.4 25.7958C201.29 24.6858 201.31 23.4358 201.31 21.2658C201.31 19.0958 201.31 17.8458 202.4 16.7358C202.792 16.342 203.26 16.0325 203.776 15.8262C204.292 15.6198 204.844 15.521 205.4 15.5358C206.382 15.5 207.341 15.8383 208.084 16.4823C208.826 17.1264 209.296 18.0283 209.4 19.0058H207.66C207.586 18.5859 207.399 18.1941 207.119 17.8731C206.838 17.5521 206.475 17.3142 206.069 17.1853C205.663 17.0564 205.229 17.0414 204.814 17.142C204.4 17.2426 204.022 17.4549 203.72 17.7558C203.17 18.3558 203.04 19.0058 203.04 21.2658C203.04 23.5258 203.17 24.1758 203.72 24.7758C203.935 24.9969 204.193 25.1714 204.479 25.2884C204.764 25.4054 205.071 25.4623 205.38 25.4558C205.932 25.4672 206.469 25.2778 206.892 24.9228C207.315 24.5679 207.595 24.0715 207.68 23.5258H209.41C209.304 24.5041 208.832 25.4061 208.088 26.05C207.343 26.6938 206.383 27.0318 205.4 26.9958Z" fill="#F5F5F5"/>
<path d="M215.36 17.1767V26.9167H213.65V17.1767H210.55V15.6367H218.46V17.1767H215.36Z" fill="#F5F5F5"/>
<path d="M220.42 26.9067V15.6367H227.64V17.1767H222.13V20.4667H226.82V21.9967H222.13V25.3867H227.64V26.9267L220.42 26.9067Z" fill="#F5F5F5"/>
<path d="M238.18 26.9067V19.3767L235.58 24.8667H234.31L231.67 19.3767V26.9067H230V15.6367H231.69L234.98 22.6367L238.22 15.6367H239.93V26.9067H238.18Z" fill="#F5F5F5"/>
<path d="M247.16 26.9067H242.84V15.6367H244.55V20.0667H247.16C248.067 20.0667 248.937 20.427 249.578 21.0684C250.22 21.7098 250.58 22.5797 250.58 23.4867C250.58 24.3938 250.22 25.2636 249.578 25.905C248.937 26.5464 248.067 26.9067 247.16 26.9067ZM247.02 21.6067H244.55V25.3767H247C247.259 25.3956 247.519 25.3609 247.764 25.2747C248.009 25.1885 248.234 25.0528 248.424 24.8759C248.614 24.699 248.766 24.4848 248.87 24.2466C248.974 24.0085 249.027 23.7515 249.027 23.4917C249.027 23.2319 248.974 22.975 248.87 22.7368C248.766 22.4987 248.614 22.2845 248.424 22.1076C248.234 21.9307 248.009 21.7949 247.764 21.7087C247.519 21.6226 247.259 21.5878 247 21.6067H247.02ZM252.1 26.9067V15.6367H253.81V26.9067H252.1Z" fill="#F5F5F5"/>
<path d="M183.89 40.6155C183.737 41.1318 183.427 41.5872 183.001 41.9173C182.576 42.2474 182.058 42.4357 181.52 42.4555H180.35V40.9155H181.16C181.447 40.9333 181.733 40.8544 181.97 40.6913C182.207 40.5282 182.383 40.2903 182.47 40.0155L182.87 39.0955L179.21 31.1855H181L183.69 37.1855L186.11 31.1855H187.91L183.89 40.6155Z" fill="#F5F5F5"/>
<path d="M196.16 42.4555V32.7155H191.6V42.4555H189.89V31.1855H197.89V42.4555H196.16Z" fill="#F5F5F5"/>
<path d="M205.48 37.9955H202.92V42.4255H201.21V31.1855H205.48C206.387 31.1855 207.257 31.5459 207.898 32.1872C208.54 32.8286 208.9 33.6985 208.9 34.6055C208.9 35.5126 208.54 36.3825 207.898 37.0239C207.257 37.6652 206.387 38.0255 205.48 38.0255V37.9955ZM205.37 32.6955H202.92V36.4655H205.37C205.629 36.4844 205.889 36.4497 206.134 36.3635C206.379 36.2774 206.604 36.1416 206.794 35.9647C206.985 35.7878 207.136 35.5736 207.24 35.3355C207.344 35.0973 207.397 34.8403 207.397 34.5805C207.397 34.3208 207.344 34.0638 207.24 33.8256C207.136 33.5875 206.985 33.3733 206.794 33.1964C206.604 33.0195 206.379 32.8837 206.134 32.7976C205.889 32.7114 205.629 32.6767 205.37 32.6955Z" fill="#F5F5F5"/>
<path d="M217.26 42.4555L216.47 40.1955H212L211.21 42.4555H209.41L213.54 31.1855H214.92L219.04 42.4555H217.26ZM214.26 33.7355L212.49 38.7355H216L214.26 33.7355Z" fill="#F5F5F5"/>
<path d="M225.62 42.4555H221.06V31.1855H225.44C227.5 31.1855 228.84 32.3855 228.84 34.1855C228.862 34.6993 228.728 35.2079 228.457 35.6449C228.186 36.0819 227.79 36.4271 227.32 36.6355C227.844 36.8421 228.29 37.2101 228.592 37.6865C228.894 38.1628 229.037 38.7228 229 39.2855C229 41.2355 227.73 42.4555 225.62 42.4555ZM225.3 32.7155H222.77V35.9955H225.3C226.44 35.9955 227.14 35.3955 227.14 34.3855C227.14 33.3755 226.45 32.7155 225.31 32.7155H225.3ZM225.44 37.4755H222.76V40.9055H225.44C225.676 40.9236 225.913 40.8927 226.137 40.8146C226.361 40.7366 226.566 40.6133 226.74 40.4523C226.913 40.2912 227.052 40.0961 227.147 39.8789C227.242 39.6618 227.291 39.4275 227.291 39.1905C227.291 38.9536 227.242 38.7193 227.147 38.5022C227.052 38.285 226.913 38.0899 226.74 37.9288C226.566 37.7678 226.361 37.6444 226.137 37.5664C225.913 37.4884 225.676 37.4575 225.44 37.4755Z" fill="#F5F5F5"/>
<path d="M237.75 42.4555V32.7155H234.51V36.2755C234.51 41.0055 233.37 42.4455 231.11 42.4455H230.4V40.9155H230.7C231.95 40.9155 232.85 40.1255 232.85 36.0355V31.1855H239.47V42.4555H237.75Z" fill="#F5F5F5"/>
<path d="M242.82 42.4555V31.1855H250V32.7255H244.49V35.9955H249.18V37.5155H244.49V40.9055H250V42.4455L242.82 42.4555Z" fill="#F5F5F5"/>
<path d="M258.999 42.4555V37.5355H254.439V42.4555H252.729V31.1855H254.439V35.9955H258.999V31.1855H260.73V42.4555H258.999Z" fill="#F5F5F5"/>
<path d="M270.69 42.4555V34.2655L265.69 42.4455H264.14V31.1855H265.85V39.3555L270.85 31.1855H272.42V42.4555H270.69Z" fill="#F5F5F5"/>
<path d="M277 42.4559H275L277.45 37.7059C276.8 37.4968 276.235 37.0807 275.844 36.5209C275.452 35.9612 275.254 35.2886 275.28 34.6059C275.263 34.1375 275.345 33.6707 275.522 33.2365C275.698 32.8023 275.965 32.4106 276.305 32.0872C276.644 31.7639 277.048 31.5164 277.491 31.361C277.933 31.2056 278.403 31.1459 278.87 31.1859H283.16V42.4559H281.43V37.9959H279.2L277 42.4559ZM281.42 32.7059H279C278.74 32.6747 278.477 32.701 278.228 32.7827C277.979 32.8644 277.752 32.9997 277.561 33.1789C277.37 33.3582 277.221 33.577 277.124 33.8201C277.027 34.0632 276.985 34.3246 277 34.5859C276.985 34.8479 277.028 35.1099 277.125 35.3538C277.222 35.5977 277.37 35.8177 277.561 35.9984C277.751 36.1792 277.978 36.3164 278.227 36.4005C278.475 36.4847 278.739 36.5138 279 36.4859H281.45L281.42 32.7059Z" fill="#F5F5F5"/>
</svg>
