<svg width="48" height="48" viewBox="0 0 48 48" fill="none" xmlns="http://www.w3.org/2000/svg">
<g clip-path="url(#clip0_211_7032)">
<g clip-path="url(#clip1_211_7032)">
<path d="M0 15.36C0 9.98352 0 7.29522 1.04634 5.24169C1.96672 3.43534 3.43534 1.96672 5.24169 1.04634C7.29522 0 9.98352 0 15.36 0H32.64C38.0165 0 40.7048 0 42.7583 1.04634C44.5646 1.96672 46.0333 3.43534 46.9537 5.24169C48 7.29522 48 9.98352 48 15.36V32.64C48 38.0165 48 40.7048 46.9537 42.7583C46.0333 44.5646 44.5646 46.0333 42.7583 46.9537C40.7048 48 38.0165 48 32.64 48H15.36C9.98352 48 7.29522 48 5.24169 46.9537C3.43534 46.0333 1.96672 44.5646 1.04634 42.7583C0 40.7048 0 38.0165 0 32.64V15.36Z" fill="#333333"/>
<path opacity="0.3" d="M32.1001 16.1992H15.9001C15.7344 16.1992 15.6001 16.3335 15.6001 16.4992V18.2992C15.6001 18.4649 15.7344 18.5992 15.9001 18.5992H32.1001C32.2658 18.5992 32.4001 18.4649 32.4001 18.2992V16.4992C32.4001 16.3335 32.2658 16.1992 32.1001 16.1992Z" fill="white"/>
<path opacity="0.3" d="M29.7 10.8008H18.3C18.1343 10.8008 18 10.9351 18 11.1008V12.9008C18 13.0665 18.1343 13.2008 18.3 13.2008H29.7C29.8657 13.2008 30 13.0665 30 12.9008V11.1008C30 10.9351 29.8657 10.8008 29.7 10.8008Z" fill="white"/>
<path fill-rule="evenodd" clip-rule="evenodd" d="M13.2 21.5996C12.5372 21.5996 12 22.1368 12 22.7996V31.7996C12 32.4624 12.5372 32.9996 13.2 32.9996H34.8C35.4628 32.9996 36 32.4624 36 31.7996V22.7996C36 22.1368 35.4628 21.5996 34.8 21.5996H13.2ZM33.6 24.5996H14.4V26.9996H33.6V24.5996Z" fill="white"/>
</g>
</g>
<defs>
<clipPath id="clip0_211_7032">
<rect width="48" height="48" fill="white"/>
</clipPath>
<clipPath id="clip1_211_7032">
<rect width="48" height="48" fill="white"/>
</clipPath>
</defs>
</svg>
