<svg width="261" height="40" viewBox="0 0 261 40" fill="none" xmlns="http://www.w3.org/2000/svg">
<path d="M103.268 0.1875H94.2754V9.1806H103.268V0.1875Z" fill="#FEA621"/>
<path d="M74.4058 29.9502C73.4429 29.8138 72.561 29.3364 71.9204 28.6047C71.2798 27.8731 70.9231 26.9358 70.9151 25.9634C70.9151 25.7613 70.7865 13.5807 70.7865 13.4245C70.7816 12.8906 70.8822 12.3609 71.0823 11.8658C71.2825 11.3708 71.5783 10.9201 71.9529 10.5395C72.3275 10.1589 72.7735 9.85599 73.2653 9.64803C73.7571 9.44008 74.2851 9.33118 74.8191 9.32758L90.9406 9.1806V0.1875H72.9911C70.1694 0.187099 67.4507 1.24765 65.3747 3.15863C63.2986 5.06962 62.017 7.69133 61.7842 10.5034V27.7455C61.7842 30.7212 62.9637 33.5755 65.0644 35.683C67.165 37.7906 70.0155 38.9795 72.9911 38.9892L103.305 38.9433V29.9502H74.4058Z" fill="#1A1A1A"/>
<path d="M121.522 29.998H112.529V38.9911H121.522V29.998Z" fill="#66B821"/>
<path d="M156.824 0.326172H147.831V10.8625C147.691 11.822 147.212 12.6996 146.48 13.3365C145.749 13.9734 144.814 14.3275 143.844 14.3348H125.555C125.021 14.3312 124.493 14.2223 124.001 14.0144C123.509 13.8064 123.063 13.5035 122.689 13.1229C122.314 12.7424 122.018 12.2916 121.818 11.7966C121.618 11.3015 121.518 10.7718 121.522 10.2379C121.522 9.98985 121.522 0.592566 121.522 0.592566H112.529L112.575 13.9031C112.842 18.9738 118.151 23.4657 123.773 23.4657H144.662C145.732 23.5756 146.813 23.4534 147.831 23.1075V26.4328C147.831 28.8395 145.718 29.9051 143.844 29.9051L124.93 29.997V38.9901H145.691C151.34 38.9901 156.714 34.0847 156.714 29.2805L156.824 0.326172Z" fill="#1A1A1A"/>
<path d="M52.7646 29.9961H43.7715V38.9892H52.7646V29.9961Z" fill="#C2000B"/>
<path d="M46.9497 0.0595744C44.233 -0.0239561 41.5928 0.966129 39.6009 2.81538C38.9487 3.38491 26.2995 16.2637 26.2995 16.2637L12.5205 2.48468C10.7752 0.776083 8.14799 0.151434 5.62184 0.151434L0 0.11469V38.9899H8.9931V11.6339L26.3179 28.9587L43.7713 11.5053V26.2948H52.7644V0.11469L46.9497 0.0595744Z" fill="#1A1A1A"/>
<path d="M173.413 10.4405V3.51427L171.025 8.55739H169.858L167.433 3.51427V10.4313H165.862V0.0878906H167.415L170.437 6.51809L173.413 0.0878906H174.984V10.4405H173.413Z" fill="#1A1A1A"/>
<path d="M185.64 5.40692C185.64 7.10633 185.64 8.40155 184.639 9.4212C183.909 10.1316 182.93 10.5291 181.911 10.5291C180.892 10.5291 179.913 10.1316 179.183 9.4212C178.209 8.41993 178.209 7.00528 178.209 5.50796V4.78227C178.209 3.08286 178.338 1.97135 179.21 1.10786C179.941 0.397457 180.92 0 181.939 0C182.957 0 183.936 0.397457 184.667 1.10786C185.055 1.58438 185.344 2.13399 185.516 2.72412C185.688 3.31426 185.74 3.93291 185.668 4.54343L185.64 5.40692ZM183.445 2.04484C183.246 1.83743 183.006 1.67329 182.74 1.56266C182.475 1.45204 182.189 1.39728 181.902 1.40182C181.614 1.39891 181.329 1.4544 181.064 1.56494C180.799 1.67547 180.559 1.83874 180.359 2.04484C179.78 2.65111 179.761 3.67076 179.761 4.99355V5.91215C179.63 6.81989 179.843 7.7439 180.359 8.5026C180.559 8.7087 180.799 8.87197 181.064 8.9825C181.329 9.09303 181.614 9.14853 181.902 9.14562C182.19 9.15298 182.476 9.09951 182.742 8.98871C183.008 8.87791 183.247 8.71227 183.445 8.5026C184.06 7.85958 184.06 6.95016 184.06 5.18645C184.06 3.58809 184.033 2.6603 183.445 2.04484Z" fill="#1A1A1A"/>
<path d="M195.663 0.0878906V9.02587H196.885V12.7646H195.341V10.4405H189.058V12.7646H187.533V9.02587H188.452C189.413 7.21887 189.852 5.18001 189.719 3.13764V0.0878906H195.663ZM191.217 3.80822C191.303 5.60421 190.953 7.39429 190.197 9.02587H194.092V1.49335H191.217V3.80822Z" fill="#1A1A1A"/>
<path d="M202.663 8.75029C202.523 9.22455 202.238 9.64283 201.847 9.94609C201.456 10.2494 200.98 10.4223 200.486 10.4405H199.411V9.02587H200.156C200.42 9.0422 200.682 8.96967 200.9 8.81984C201.118 8.67001 201.279 8.4515 201.359 8.19913L201.726 7.35402L198.364 0.0878906H200.018L202.489 5.59949L204.712 0.0878906H206.374L202.663 8.75029Z" fill="#1A1A1A"/>
<path d="M214.035 10.4405V1.49335H211.059V4.76357C211.059 9.10855 210.011 10.4313 207.935 10.4313H207.283V9.02587H207.559C208.707 9.02587 209.534 8.30018 209.534 4.5431V0.0878906H215.615V10.4405H214.035Z" fill="#1A1A1A"/>
<path d="M223.137 10.4405H219.169V0.0878906H220.74V4.15729H223.137C223.565 4.12343 223.996 4.18031 224.4 4.32421C224.805 4.46811 225.174 4.69578 225.484 4.99233C225.795 5.28888 226.039 5.64763 226.201 6.04511C226.364 6.44258 226.44 6.86983 226.426 7.2989C226.439 7.72759 226.361 8.15417 226.199 8.55097C226.036 8.94778 225.791 9.30592 225.481 9.60217C225.171 9.89842 224.802 10.1262 224.398 10.2706C223.995 10.415 223.565 10.4729 223.137 10.4405V10.4405ZM223.009 5.57194H220.74V9.02587H223.009C223.247 9.05447 223.489 9.03039 223.718 8.95531C223.946 8.88023 224.155 8.75599 224.331 8.59133C224.506 8.42668 224.643 8.22562 224.732 8.00232C224.821 7.77902 224.86 7.53891 224.846 7.2989C224.861 7.05815 224.823 6.81701 224.735 6.59257C224.646 6.36813 224.51 6.16589 224.334 6.00021C224.159 5.83452 223.949 5.70944 223.72 5.63384C223.491 5.55824 223.248 5.53397 223.009 5.56275V5.57194Z" fill="#1A1A1A"/>
<path d="M234.951 10.4405V5.91182H230.762V10.4313H229.191V0.0878906H230.762V4.51555H234.951V0.0878906H236.54V10.4405H234.951Z" fill="#1A1A1A"/>
<path d="M244.073 10.4405H240.104V0.0878906H241.675V4.15729H244.073C244.501 4.12343 244.931 4.18031 245.336 4.32421C245.74 4.46811 246.11 4.69578 246.42 4.99233C246.73 5.28888 246.975 5.64763 247.137 6.04511C247.299 6.44258 247.376 6.86983 247.361 7.2989C247.374 7.72759 247.297 8.15417 247.134 8.55097C246.971 8.94778 246.727 9.30592 246.417 9.60217C246.107 9.89842 245.738 10.1262 245.334 10.2706C244.93 10.415 244.501 10.4729 244.073 10.4405ZM243.944 5.57194H241.675V9.02587H243.944C244.183 9.05447 244.425 9.03039 244.653 8.95531C244.882 8.88023 245.091 8.75599 245.266 8.59133C245.441 8.42668 245.578 8.22562 245.667 8.00232C245.756 7.77902 245.795 7.53891 245.781 7.2989C245.797 7.05815 245.759 6.81701 245.67 6.59257C245.582 6.36813 245.445 6.16589 245.27 6.00021C245.094 5.83452 244.885 5.70944 244.656 5.63384C244.427 5.55824 244.184 5.53397 243.944 5.56275V5.57194ZM248.611 10.4405V0.0878906H250.182V10.4405H248.611Z" fill="#1A1A1A"/>
<path d="M253.764 10.4405V0.0878906H260.396V1.49335H255.371V4.51555H259.679V5.91182H255.371V9.02587H260.433V10.4405H253.764Z" fill="#1A1A1A"/>
<path d="M169.207 24.7971C168.697 24.8107 168.189 24.7199 167.716 24.5304C167.242 24.3408 166.812 24.0565 166.451 23.6948C165.432 22.6751 165.45 21.5269 165.45 19.5335C165.45 17.5402 165.45 16.3919 166.451 15.3723C166.812 15.0106 167.242 14.7262 167.716 14.5367C168.189 14.3471 168.697 14.2564 169.207 14.2699C170.11 14.237 170.991 14.5478 171.673 15.1395C172.355 15.7311 172.787 16.5596 172.882 17.4575H171.283C171.216 17.0718 171.044 16.7119 170.787 16.417C170.529 16.1222 170.195 15.9036 169.822 15.7852C169.449 15.6668 169.05 15.653 168.67 15.7454C168.289 15.8378 167.941 16.0329 167.664 16.3092C167.159 16.8604 167.039 17.4575 167.039 19.5335C167.039 21.6096 167.159 22.2067 167.664 22.7578C167.941 23.0466 168.293 23.2524 168.68 23.3521C169.068 23.4518 169.475 23.4414 169.857 23.3221C170.239 23.2028 170.58 22.9793 170.842 22.6767C171.103 22.3742 171.275 22.0046 171.338 21.6096H172.928C172.83 22.5149 172.391 23.3488 171.7 23.9412C171.008 24.5337 170.117 24.8398 169.207 24.7971V24.7971Z" fill="#1A1A1A"/>
<path d="M181.066 24.7159V17.2018L176.427 24.7159H174.994V14.3633H176.565V21.8682L181.158 14.3633H182.6V24.7159H181.066Z" fill="#1A1A1A"/>
<path d="M188.681 24.7971C188.171 24.8107 187.663 24.7199 187.189 24.5304C186.715 24.3408 186.285 24.0565 185.925 23.6948C184.905 22.6751 184.924 21.5269 184.924 19.5335C184.924 17.5402 184.924 16.3919 185.925 15.3723C186.285 15.0106 186.715 14.7262 187.189 14.5367C187.663 14.3471 188.171 14.2564 188.681 14.2699C189.583 14.237 190.464 14.5478 191.146 15.1395C191.828 15.7311 192.261 16.5596 192.355 17.4575H190.757C190.69 17.0718 190.518 16.7119 190.26 16.417C190.003 16.1222 189.669 15.9036 189.296 15.7852C188.922 15.6668 188.524 15.653 188.143 15.7454C187.763 15.8378 187.415 16.0329 187.138 16.3092C186.632 16.8604 186.513 17.4575 186.513 19.5335C186.513 21.6096 186.632 22.2067 187.138 22.7578C187.335 22.9609 187.573 23.1212 187.835 23.2287C188.097 23.3361 188.379 23.3885 188.663 23.3825C189.17 23.3929 189.663 23.219 190.052 22.8929C190.441 22.5668 190.698 22.1108 190.775 21.6096H192.365C192.268 22.5083 191.834 23.3368 191.15 23.9283C190.467 24.5198 189.584 24.8302 188.681 24.7971V24.7971Z" fill="#1A1A1A"/>
<path d="M197.831 15.7779V24.7251H196.26V15.7779H193.412V14.3633H200.678V15.7779H197.831Z" fill="#1A1A1A"/>
<path d="M202.479 24.7159V14.3633H209.111V15.7779H204.049V18.8001H208.358V20.2056H204.049V23.3196H209.111V24.7343L202.479 24.7159Z" fill="#1A1A1A"/>
<path d="M218.793 24.7159V17.7988L216.405 22.842H215.238L212.813 17.7988V24.7159H211.279V14.3633H212.832L215.854 20.7935L218.83 14.3633H220.401V24.7159H218.793Z" fill="#1A1A1A"/>
<path d="M227.043 24.7159H223.074V14.3633H224.645V18.4327H227.043C227.876 18.4327 228.675 18.7637 229.264 19.3528C229.853 19.942 230.184 20.7411 230.184 21.5743C230.184 22.4075 229.853 23.2066 229.264 23.7958C228.675 24.3849 227.876 24.7159 227.043 24.7159V24.7159ZM226.914 19.8473H224.645V23.3104H226.896C227.134 23.3278 227.373 23.2959 227.598 23.2167C227.823 23.1376 228.029 23.0129 228.204 22.8504C228.379 22.6879 228.518 22.4911 228.613 22.2723C228.709 22.0536 228.758 21.8175 228.758 21.5789C228.758 21.3403 228.709 21.1042 228.613 20.8854C228.518 20.6667 228.379 20.4699 228.204 20.3074C228.029 20.1449 227.823 20.0202 227.598 19.941C227.373 19.8619 227.134 19.83 226.896 19.8473H226.914ZM231.58 24.7159V14.3633H233.151V24.7159H231.58Z" fill="#1A1A1A"/>
<path d="M168.922 37.3089C168.782 37.7831 168.496 38.2014 168.106 38.5047C167.715 38.808 167.239 38.9809 166.745 38.9991H165.67V37.5845H166.414C166.678 37.6008 166.94 37.5283 167.158 37.3784C167.377 37.2286 167.538 37.0101 167.618 36.7577L167.985 35.9126L164.623 28.6465H166.267L168.738 34.1581L170.961 28.6465H172.615L168.922 37.3089Z" fill="#1A1A1A"/>
<path d="M180.193 38.9991V30.0519H176.004V38.9991H174.434V28.6465H181.782V38.9991H180.193Z" fill="#1A1A1A"/>
<path d="M188.755 34.9022H186.404V38.9716H184.833V28.6465H188.755C189.589 28.6465 190.388 28.9775 190.977 29.5666C191.566 30.1558 191.897 30.9549 191.897 31.7881C191.897 32.6213 191.566 33.4204 190.977 34.0096C190.388 34.5987 189.589 34.9297 188.755 34.9297V34.9022ZM188.654 30.0336H186.404V33.4967H188.654C188.892 33.514 189.131 33.4821 189.357 33.403C189.582 33.3238 189.788 33.1991 189.963 33.0366C190.138 32.8741 190.277 32.6774 190.372 32.4586C190.468 32.2398 190.517 32.0038 190.517 31.7651C190.517 31.5265 190.468 31.2904 190.372 31.0717C190.277 30.8529 190.138 30.6561 189.963 30.4936C189.788 30.3312 189.582 30.2064 189.357 30.1273C189.131 30.0481 188.892 30.0162 188.654 30.0336Z" fill="#1A1A1A"/>
<path d="M199.576 38.9991L198.851 36.9231H194.744L194.019 38.9991H192.365L196.159 28.6465H197.427L201.211 38.9991H199.576ZM196.82 30.9889L195.195 35.5819H198.419L196.82 30.9889Z" fill="#1A1A1A"/>
<path d="M207.255 38.9991H203.066V28.6465H207.09C208.982 28.6465 210.213 29.7488 210.213 31.4023C210.233 31.8743 210.111 32.3414 209.862 32.7428C209.613 33.1443 209.249 33.4614 208.817 33.6529C209.299 33.8426 209.708 34.1807 209.986 34.6182C210.263 35.0558 210.394 35.5702 210.36 36.0871C210.36 37.8784 209.193 38.9991 207.255 38.9991ZM206.961 30.0519H204.637V33.065H206.961C208.008 33.065 208.651 32.5138 208.651 31.586C208.651 30.6582 208.018 30.0519 206.97 30.0519H206.961ZM207.09 34.4245H204.628V37.5753H207.09C207.307 37.5919 207.525 37.5634 207.73 37.4918C207.936 37.4201 208.124 37.3068 208.284 37.1589C208.444 37.011 208.571 36.8317 208.658 36.6322C208.745 36.4328 208.79 36.2175 208.79 35.9999C208.79 35.7822 208.745 35.567 208.658 35.3675C208.571 35.1681 208.444 34.9888 208.284 34.8409C208.124 34.693 207.936 34.5796 207.73 34.508C207.525 34.4363 207.307 34.4079 207.09 34.4245Z" fill="#1A1A1A"/>
<path d="M218.398 38.9991V30.0519H215.422V33.3222C215.422 37.6671 214.375 38.9899 212.299 38.9899H211.646V37.5845H211.922C213.07 37.5845 213.897 36.8588 213.897 33.1017V28.6465H219.978V38.9991H218.398Z" fill="#1A1A1A"/>
<path d="M223.056 38.9991V28.6465H229.651V30.0611H224.59V33.065H228.898V34.4612H224.59V37.5753H229.651V38.9899L223.056 38.9991Z" fill="#1A1A1A"/>
<path d="M237.918 38.9991V34.4796H233.729V38.9991H232.158V28.6465H233.729V33.065H237.918V28.6465H239.507V38.9991H237.918Z" fill="#1A1A1A"/>
<path d="M248.655 38.9991V31.4758L244.062 38.9899H242.639V28.6465H244.209V36.1515L248.802 28.6465H250.245V38.9991H248.655Z" fill="#1A1A1A"/>
<path d="M254.453 39.0004H252.616L254.867 34.6371C254.269 34.445 253.751 34.0627 253.391 33.5486C253.031 33.0344 252.849 32.4166 252.873 31.7894C252.858 31.3591 252.933 30.9303 253.095 30.5315C253.258 30.1326 253.503 29.7728 253.815 29.4758C254.126 29.1788 254.498 28.9514 254.904 28.8086C255.31 28.6659 255.742 28.6111 256.171 28.6478H260.112V39.0004H258.523V34.9035H256.474L254.453 39.0004ZM258.514 30.0441H256.291C256.052 30.0155 255.81 30.0396 255.581 30.1146C255.353 30.1897 255.144 30.314 254.969 30.4786C254.794 30.6433 254.657 30.8443 254.568 31.0676C254.479 31.2909 254.44 31.531 254.453 31.771C254.44 32.0117 254.479 32.2524 254.568 32.4765C254.657 32.7005 254.794 32.9026 254.968 33.0686C255.143 33.2346 255.352 33.3607 255.58 33.438C255.809 33.5153 256.051 33.5421 256.291 33.5164H258.541L258.514 30.0441Z" fill="#1A1A1A"/>
</svg>
