<svg width="118" height="31" viewBox="0 0 118 31" fill="none" xmlns="http://www.w3.org/2000/svg">
<path d="M77.7041 0.105469H70.9375V7.26568H77.7041V0.105469Z" fill="#FEA621"/>
<path d="M55.9851 23.8022C55.2606 23.6936 54.597 23.3135 54.115 22.731C53.633 22.1484 53.3646 21.4022 53.3586 20.628C53.3586 20.4671 53.2618 10.769 53.2618 10.6446C53.2582 10.2195 53.3338 9.79779 53.4844 9.40363C53.635 9.00946 53.8576 8.65061 54.1395 8.34761C54.4213 8.04461 54.7569 7.80342 55.127 7.63784C55.497 7.47227 55.8943 7.38556 56.2961 7.3827L68.4263 7.26568V0.105469H54.9207C52.7976 0.105149 50.752 0.949545 49.1899 2.47105C47.6278 3.99256 46.6635 6.07994 46.4883 8.31886V22.0469C46.4883 24.416 47.3758 26.6886 48.9564 28.3666C50.537 30.0446 52.6817 30.9912 54.9207 30.9989L77.7296 30.9624V23.8022H55.9851Z" fill="white"/>
<path d="M91.4385 23.8398H84.6719V31.0001H91.4385V23.8398Z" fill="#66B821"/>
<path d="M118.001 0.214844H111.234V8.60377C111.128 9.36771 110.768 10.0664 110.218 10.5735C109.667 11.0806 108.964 11.3625 108.234 11.3684H94.4728C94.071 11.3655 93.6737 11.2788 93.3037 11.1132C92.9336 10.9477 92.598 10.7065 92.3162 10.4035C92.0343 10.1005 91.8117 9.74162 91.6611 9.34746C91.5105 8.9533 91.4349 8.53157 91.4385 8.10643C91.4385 7.90896 91.4385 0.426944 91.4385 0.426944H84.6719L84.7064 11.0246C84.9069 15.0619 88.9019 18.6383 93.1319 18.6383H108.849C109.654 18.7258 110.468 18.6285 111.234 18.3531V21.0007C111.234 22.9169 109.644 23.7653 108.234 23.7653L94.0028 23.8384V30.9986H109.623C113.874 30.9986 117.918 27.093 117.918 23.2679L118.001 0.214844Z" fill="white"/>
<path d="M39.7002 23.8398H32.9336V31.0001H39.7002V23.8398Z" fill="#C2000B"/>
<path d="M35.3262 0.00389089C33.2821 -0.0626152 31.2955 0.725679 29.7968 2.19803C29.306 2.65149 19.7885 12.9054 19.7885 12.9054L9.42078 1.93473C8.10754 0.574367 6.13076 0.0770289 4.23002 0.0770289L0 0.0477737V30.9998H6.76665V9.21927L19.8023 23.0131L32.9347 9.11688V20.8921H39.7014V0.0477737L35.3262 0.00389089Z" fill="white"/>
</svg>
